<?xml version="1.0" standalone="no"?>
<!DOCTYPE svg PUBLIC "-//W3C//DTD SVG 20010904//EN"
 "http://www.w3.org/TR/2001/REC-SVG-20010904/DTD/svg10.dtd">
<svg version="1.0" xmlns="http://www.w3.org/2000/svg"
 width="3168.000000pt" height="3168.000000pt" viewBox="0 0 3168.000000 3168.000000"
 preserveAspectRatio="xMidYMid meet">
<metadata>
Created by potrace 1.11, written by Peter Selinger 2001-2013
</metadata>
<g transform="translate(0.000000,3168.000000) scale(0.100000,-0.100000)"
fill="#000000" stroke="none">
<path d="M15637 26464 c-1 -1 -74 -5 -162 -8 -88 -4 -176 -9 -195 -10 -58 -5
-224 -24 -270 -31 -14 -2 -63 -9 -110 -15 -69 -9 -340 -60 -400 -75 -8 -2 -46
-11 -85 -20 -265 -62 -630 -182 -895 -295 -607 -259 -1205 -647 -1669 -1085
-464 -436 -801 -867 -1121 -1430 -88 -153 -256 -512 -322 -685 -68 -177 -170
-484 -193 -580 -2 -8 -17 -69 -34 -135 -42 -168 -77 -346 -101 -510 -11 -77
-22 -153 -25 -170 -2 -16 -7 -64 -11 -105 -3 -41 -8 -83 -9 -92 -24 -122 -23
-878 0 -999 2 -10 7 -56 10 -100 4 -45 8 -91 10 -102 3 -10 7 -45 11 -76 3
-31 17 -119 31 -196 13 -77 26 -153 29 -170 3 -16 10 -48 16 -70 5 -22 12 -51
14 -65 28 -163 196 -696 279 -885 7 -16 34 -78 59 -138 165 -384 401 -788 670
-1147 82 -109 77 -103 187 -235 132 -158 138 -164 289 -320 477 -492 1001
-870 1625 -1175 170 -83 499 -221 575 -242 19 -5 44 -13 55 -17 121 -52 567
-173 765 -207 14 -2 48 -9 75 -14 48 -9 81 -15 143 -24 15 -3 47 -8 72 -12 25
-4 56 -8 70 -9 53 -5 156 -17 180 -20 23 -3 137 -12 265 -21 150 -10 593 -3
745 11 36 3 86 8 113 11 79 7 150 15 182 19 17 3 77 12 135 20 128 19 161 24
180 30 8 2 30 7 48 10 18 3 65 12 105 21 39 8 79 17 89 19 280 60 784 232
1083 370 299 138 661 344 870 495 39 28 78 53 88 57 9 3 17 9 17 13 0 5 17 19
38 31 20 13 46 31 57 40 11 9 76 62 145 117 367 292 710 647 995 1027 145 193
304 432 392 590 95 169 174 325 279 550 115 245 301 811 340 1028 2 17 6 33 8
36 4 7 62 314 71 376 20 138 25 178 30 245 3 41 8 82 10 90 26 100 26 902 0
1080 -2 14 -7 57 -10 95 -3 39 -10 95 -15 125 -5 30 -12 77 -15 104 -36 294
-161 774 -291 1125 -67 178 -72 190 -139 341 -42 93 -192 399 -205 415 -4 6
-22 37 -40 70 -18 33 -71 122 -119 198 -47 76 -90 146 -96 155 -70 119 -357
490 -524 676 -67 75 -375 381 -450 446 -41 36 -79 70 -85 75 -40 36 -230 186
-326 257 -598 443 -1277 765 -2000 948 -47 12 -92 23 -100 25 -8 2 -58 13
-110 24 -52 11 -111 23 -130 26 -19 3 -46 8 -60 10 -58 12 -77 15 -120 21 -25
3 -54 8 -65 10 -11 2 -42 6 -70 9 -27 4 -61 8 -75 10 -14 2 -59 7 -100 11 -41
3 -88 8 -105 9 -125 12 -588 27 -598 19z m520 -677 c12 -3 57 -8 100 -12 43
-3 89 -8 103 -10 14 -2 48 -6 75 -10 28 -3 75 -10 105 -15 30 -5 73 -12 95
-16 78 -11 362 -74 470 -104 425 -118 885 -314 1245 -530 106 -64 371 -238
380 -250 3 -3 21 -17 40 -30 51 -35 139 -104 254 -200 151 -126 158 -132 326
-300 493 -491 857 -1038 1128 -1695 113 -276 240 -716 287 -995 3 -19 8 -42
10 -50 2 -8 7 -35 10 -60 3 -25 8 -61 11 -80 7 -49 12 -96 19 -160 3 -30 8
-68 10 -85 10 -81 18 -270 18 -455 1 -225 -7 -381 -28 -570 -16 -148 -15 -139
-51 -355 -24 -147 -105 -469 -160 -637 -251 -775 -673 -1465 -1244 -2038 -342
-342 -690 -605 -1145 -865 -174 -99 -504 -250 -718 -327 -199 -71 -541 -170
-662 -192 -16 -2 -66 -12 -109 -21 -44 -8 -93 -18 -110 -20 -144 -24 -141 -24
-278 -40 -190 -22 -324 -29 -568 -29 -197 0 -429 9 -494 19 -11 2 -50 6 -85
10 -84 8 -104 10 -306 45 -786 136 -1537 463 -2190 956 -60 45 -119 91 -130
101 -11 10 -33 29 -50 42 -171 132 -546 512 -711 721 -32 41 -61 77 -64 80 -3
3 -36 46 -73 97 -443 609 -737 1270 -886 1993 -16 80 -32 165 -36 190 -3 25
-8 52 -10 60 -2 8 -6 40 -10 71 -3 31 -7 65 -9 75 -7 36 -22 215 -31 361 -7
102 -7 443 -1 513 3 30 8 98 11 150 4 52 8 109 10 125 2 17 6 55 10 85 7 58
22 158 30 200 3 14 7 44 10 67 23 190 148 642 260 938 87 230 271 612 365 755
5 8 17 29 26 45 58 106 329 490 416 590 14 17 58 68 98 115 234 276 585 595
895 816 520 369 1099 637 1706 790 79 20 153 38 164 40 11 2 54 10 95 19 104
21 311 52 395 61 39 3 79 8 90 10 11 2 67 7 125 10 58 4 107 8 109 10 5 5 634
-4 658 -9z"/>
<path d="M14155 24068 c-59 -117 -176 -348 -260 -513 -84 -165 -250 -493 -370
-730 -120 -236 -291 -574 -380 -750 -89 -176 -250 -493 -357 -705 -232 -457
-556 -1097 -732 -1443 -69 -137 -126 -250 -126 -252 0 -1 519 -3 1153 -3
l1152 0 303 603 304 604 -202 398 c-112 219 -203 399 -204 400 -2 3 -88 -164
-341 -662 -87 -170 -208 -407 -269 -526 l-110 -217 -338 1 -338 0 212 416
c383 755 504 992 673 1326 302 596 339 665 345 658 4 -5 83 -156 175 -338 92
-181 212 -415 265 -520 245 -478 637 -1250 937 -1842 60 -117 110 -213 113
-213 3 0 10 10 15 23 10 21 218 429 450 882 56 110 176 344 265 520 90 176
218 428 285 560 67 132 200 393 295 580 95 187 176 344 180 348 5 5 50 -74
100 -175 51 -100 139 -273 195 -383 56 -110 182 -357 280 -550 98 -192 228
-449 290 -570 62 -121 130 -254 151 -295 21 -41 38 -77 39 -80 0 -3 3 -10 7
-15 35 -55 166 -325 160 -329 -4 -3 -157 -4 -338 -4 l-330 1 -118 231 c-65
127 -192 377 -283 556 -91 179 -200 391 -242 473 l-76 148 -31 -63 c-17 -35
-109 -216 -204 -402 l-173 -339 118 -231 c185 -362 330 -647 418 -818 l81
-156 1148 0 c682 0 1148 3 1148 9 0 10 -375 764 -575 1154 -70 138 -183 358
-250 490 -150 294 -328 643 -532 1045 -86 168 -202 395 -258 505 -135 263
-383 749 -565 1108 -81 159 -150 289 -154 290 -8 2 -60 -98 -370 -708 -231
-454 -423 -830 -571 -1120 -211 -412 -418 -820 -486 -953 -36 -74 -69 -130
-73 -124 -8 14 -115 221 -291 567 -87 171 -204 400 -260 510 -56 110 -171 335
-255 500 -84 165 -203 399 -265 520 -62 121 -179 351 -260 510 -81 160 -151
294 -155 298 -4 5 -56 -87 -115 -205z"/>
<path d="M15620 24008 c-74 -145 -201 -396 -284 -558 l-149 -295 118 -270 c64
-148 125 -288 135 -310 10 -22 34 -78 55 -125 20 -47 38 -86 40 -88 3 -3 16
23 120 243 24 50 57 119 74 154 l30 65 84 -175 c46 -96 96 -200 112 -232 15
-32 28 -57 30 -55 2 2 51 113 110 248 58 134 112 258 120 275 7 16 37 84 66
150 l52 120 -119 235 c-315 623 -448 880 -454 880 -3 0 -66 -118 -140 -262z"/>
<path d="M16285 18932 l-71 -3 0 -109 c0 -68 4 -110 11 -111 5 -1 123 -2 260
-3 l250 -1 2 -510 c1 -280 2 -515 2 -521 1 -8 36 -11 114 -10 l112 1 1 510 c1
281 2 515 3 520 1 7 86 10 249 10 136 -1 252 0 259 3 12 4 17 222 5 222 -37 3
-1144 4 -1197 2z"/>
<path d="M15485 18847 c-35 -72 -290 -573 -519 -1021 -42 -81 -76 -152 -76
-156 0 -5 57 -8 126 -7 l126 2 118 230 c65 127 147 289 184 360 36 72 72 139
79 149 12 16 28 -10 149 -250 75 -148 162 -319 194 -380 l57 -112 128 0 c114
0 127 2 121 17 -9 20 -208 414 -274 541 -28 52 -66 127 -85 165 -20 39 -51 99
-69 135 -18 36 -72 143 -121 238 -48 94 -90 172 -93 171 -3 0 -23 -37 -45 -82z"/>
<path d="M18163 18918 c-5 -7 -38 -69 -73 -138 -34 -69 -109 -215 -165 -325
-304 -594 -395 -775 -395 -783 0 -5 56 -9 124 -10 l125 0 121 236 c67 130 154
301 193 379 40 79 74 143 77 143 5 0 74 -133 309 -596 l81 -161 125 0 c69 0
125 4 125 9 0 10 -50 112 -194 391 -51 100 -171 335 -266 522 -95 187 -174
341 -175 343 -1 1 -7 -3 -12 -10z"/>
<path d="M13305 18839 c-37 -73 -171 -337 -454 -892 -78 -154 -140 -281 -137
-285 10 -10 237 -7 246 3 9 11 89 167 270 523 63 122 117 219 121 215 4 -5 89
-170 190 -368 100 -198 185 -364 189 -368 6 -7 53 81 281 535 55 108 103 199
107 202 4 2 64 -106 132 -242 69 -135 156 -304 193 -376 l68 -131 120 1 c66 1
122 4 125 6 2 3 -20 52 -49 109 -30 57 -129 253 -222 434 -325 639 -359 705
-365 705 -3 0 -57 -102 -120 -227 -63 -125 -149 -293 -190 -375 l-76 -148
-128 252 c-184 361 -247 482 -256 492 -5 5 -25 -25 -45 -65z"/>
<path d="M14609 13898 c-12 -53 -92 -262 -108 -282 -4 -6 -15 -29 -23 -51 -9
-22 -29 -69 -46 -105 -36 -79 -63 -138 -114 -255 -22 -49 -46 -103 -53 -120
-8 -16 -75 -169 -150 -340 -75 -170 -145 -328 -155 -350 -9 -22 -50 -114 -90
-205 -40 -91 -85 -193 -101 -228 -16 -35 -29 -65 -29 -67 0 -4 -21 -52 -90
-202 -63 -136 -176 -224 -291 -226 -40 -1 -49 -5 -49 -19 0 -15 10 -18 63 -19
541 -5 687 -3 687 9 0 6 1 15 3 19 1 4 -15 7 -35 8 -59 3 -97 24 -123 70 -31
52 -31 76 -1 156 38 100 167 403 176 412 7 8 808 12 815 5 2 -2 45 -106 95
-233 104 -259 110 -292 66 -350 -32 -42 -57 -56 -105 -60 -20 -2 -39 -4 -43
-4 -16 -2 -7 -31 10 -32 20 0 1055 0 1090 1 19 0 21 3 13 18 -7 14 -22 19 -56
19 -84 1 -193 73 -249 163 -12 19 -39 73 -60 120 -22 47 -59 127 -82 178 -24
52 -44 95 -44 98 0 2 -19 43 -41 91 -23 49 -52 111 -64 138 -13 28 -57 124
-98 215 -95 209 -113 249 -177 390 -29 63 -65 142 -80 175 -15 33 -72 157
-125 275 -54 118 -112 247 -130 285 -17 39 -58 129 -90 200 -33 72 -63 136
-68 143 -19 25 -35 11 -48 -40z m26 -1128 c70 -179 143 -363 161 -409 19 -47
34 -88 34 -92 0 -8 -670 -9 -683 -2 -4 3 -4 10 1 16 4 7 84 195 177 419 93
224 172 404 176 400 3 -4 64 -153 134 -332z"/>
<path d="M17987 13887 c-22 -76 -77 -213 -129 -327 -22 -47 -83 -182 -135
-300 -52 -118 -101 -228 -108 -245 -8 -16 -118 -266 -245 -555 -127 -289 -261
-592 -298 -675 -39 -89 -83 -170 -107 -200 -50 -61 -147 -113 -221 -119 -38
-2 -49 -7 -49 -21 0 -16 26 -17 360 -17 198 1 367 1 377 1 10 1 15 7 11 19 -3
13 -15 18 -43 19 -83 3 -148 78 -136 154 6 37 179 464 196 482 5 6 606 12 796
7 19 0 34 -31 114 -232 102 -256 108 -290 69 -351 -27 -41 -55 -56 -113 -60
-28 -3 -40 -9 -42 -20 -2 -14 6 -17 39 -18 55 0 1001 0 1049 0 29 1 35 4 32
19 -4 13 -17 17 -54 19 -63 2 -143 41 -198 95 -50 48 -87 122 -305 603 -80
176 -166 365 -191 419 -25 54 -46 99 -46 101 0 2 -19 43 -41 92 -23 48 -63
135 -89 193 -26 58 -57 125 -68 150 -36 77 -338 743 -357 788 -27 60 -46 55
-68 -21z m-18 -1002 c46 -115 87 -219 92 -230 25 -58 149 -376 149 -384 0 -4
-155 -8 -345 -8 -189 0 -343 3 -341 6 2 3 54 128 116 276 98 237 131 315 184
440 7 17 22 51 32 77 10 26 22 44 25 40 3 -4 43 -101 88 -217z"/>
<path d="M21780 13908 c-15 -61 -75 -217 -126 -327 -24 -51 -44 -95 -44 -96 0
-2 -15 -36 -34 -77 -18 -40 -48 -107 -66 -148 -18 -41 -42 -97 -55 -125 -12
-27 -37 -84 -55 -125 -18 -41 -45 -102 -60 -135 -15 -33 -66 -148 -113 -255
-47 -107 -140 -319 -207 -470 -120 -270 -142 -320 -145 -330 -6 -16 -41 -94
-67 -147 -57 -118 -170 -200 -281 -207 -28 -1 -51 -6 -49 -9 1 -4 2 -13 2 -19
0 -10 75 -13 348 -11 191 1 359 2 375 2 20 1 27 6 27 21 0 17 -5 19 -27 16
-41 -8 -106 26 -133 68 -38 63 -22 122 119 441 10 22 26 61 37 87 l19 48 85 1
c242 1 733 -1 735 -3 1 -2 43 -107 94 -234 97 -247 105 -285 71 -341 -27 -44
-61 -64 -114 -66 -37 -1 -46 -5 -46 -19 0 -13 8 -18 33 -19 41 0 1738 0 1753
0 11 1 15 30 5 32 -3 1 -23 2 -43 4 -52 5 -102 38 -123 81 -32 67 -24 92 66
226 46 68 127 188 181 268 54 80 136 200 181 267 45 68 84 123 87 123 3 0 37
-50 75 -110 39 -61 90 -142 115 -180 301 -465 320 -497 320 -534 0 -16 -11
-48 -25 -71 -25 -44 -62 -66 -115 -69 -30 -1 -59 -21 -47 -32 4 -5 828 -8
1145 -5 44 1 52 4 52 19 0 16 -7 18 -42 17 -59 -2 -111 11 -176 43 -110 53
-142 94 -429 538 -147 228 -305 472 -351 542 -45 70 -88 137 -93 148 -10 19
22 70 267 435 301 449 345 512 384 548 79 74 178 118 273 122 48 2 57 5 57 21
0 17 -20 18 -429 18 -305 0 -432 -3 -437 -11 -9 -15 15 -29 51 -29 64 0 134
-73 137 -142 1 -25 -13 -57 -51 -119 -71 -114 -333 -524 -370 -577 l-29 -44
-50 79 c-85 132 -264 409 -330 510 -72 110 -84 157 -55 212 25 47 65 74 120
81 34 4 47 10 49 23 2 16 -32 17 -595 17 -570 0 -597 -1 -598 -18 -1 -15 7
-19 45 -21 105 -5 181 -36 270 -109 41 -34 100 -117 323 -462 41 -63 135 -208
209 -322 74 -114 140 -216 145 -226 6 -9 21 -32 34 -50 l23 -33 -25 -37 c-13
-20 -99 -143 -190 -272 -92 -129 -171 -242 -177 -250 -199 -285 -310 -436
-354 -481 -62 -64 -130 -106 -197 -121 -41 -10 -52 -8 -100 14 -65 30 -127 87
-162 148 -14 25 -60 122 -102 215 -42 94 -87 193 -100 220 -12 28 -36 79 -53
115 -16 36 -60 133 -97 215 -37 83 -83 184 -102 225 -20 41 -80 174 -135 294
-54 121 -110 242 -123 270 -24 52 -175 383 -223 490 -101 224 -120 261 -135
264 -11 2 -19 -9 -27 -40z m5 -1094 c58 -148 109 -278 114 -289 13 -29 101
-254 101 -258 0 -2 -155 -4 -346 -4 -248 0 -344 3 -341 11 12 29 290 695 302
721 7 17 21 50 31 74 12 31 19 39 25 29 5 -8 56 -136 114 -284z"/>
<path d="M11058 13935 c-8 -9 -187 -45 -242 -50 -28 -2 -376 -4 -774 -4 -683
-1 -723 -2 -720 -18 2 -14 18 -20 62 -25 95 -12 174 -73 196 -152 8 -29 10
-325 8 -1052 l-3 -1011 -30 -49 c-41 -66 -103 -103 -178 -106 -47 -3 -57 -6
-57 -20 0 -13 8 -18 28 -19 33 0 1751 0 1773 0 12 1 23 34 48 144 18 78 34
149 36 157 54 233 91 410 87 415 -11 10 -40 -16 -47 -42 -13 -52 -74 -175
-119 -236 -92 -130 -203 -213 -341 -258 -65 -21 -92 -23 -367 -27 l-298 -4 -1
24 c-1 32 -1 908 0 936 l1 23 273 -3 272 -3 51 -27 c93 -49 149 -137 157 -248
3 -32 8 -46 20 -48 11 -2 17 3 18 15 0 10 1 191 1 402 0 310 -2 385 -13 392
-19 11 -22 6 -26 -53 -5 -77 -53 -169 -110 -213 -78 -60 -117 -66 -398 -63
l-248 3 1 485 c0 267 1 494 1 505 1 20 6 20 324 19 177 -1 333 -5 347 -8 37
-9 123 -53 147 -75 66 -62 102 -143 107 -245 3 -50 7 -62 22 -64 18 -3 19 10
19 303 0 290 -3 324 -27 300z"/>
<path d="M11432 13644 c-1 -293 1 -313 31 -314 4 0 7 24 7 53 0 143 74 263
195 319 48 21 64 23 336 26 l287 3 -2 -1053 c-1 -982 -2 -1055 -18 -1085 -41
-75 -117 -123 -198 -127 -33 -2 -46 -6 -48 -19 -2 -11 3 -17 15 -18 101 -3
1046 1 1050 5 12 12 -20 36 -43 32 -69 -13 -162 45 -201 124 l-28 55 0 1040 0
1040 250 3 c292 4 341 -3 424 -59 88 -60 136 -149 140 -264 3 -56 14 -80 33
-69 8 5 12 604 4 604 -3 0 -35 -7 -71 -15 -172 -40 -228 -42 -1093 -40 -461 2
-853 6 -872 10 -42 8 -146 32 -177 41 l-21 6 0 -298z"/>
<path d="M6409 13923 c0 -5 -2 -15 -3 -23 -2 -8 -6 -40 -10 -70 -7 -59 -43
-340 -52 -405 -7 -48 -11 -83 -19 -150 -4 -27 -8 -61 -10 -75 -5 -35 -23 -176
-30 -235 -3 -27 -8 -61 -10 -75 -5 -23 -14 -92 -20 -150 -5 -52 -16 -137 -25
-195 -5 -33 -12 -85 -15 -115 -3 -30 -8 -66 -10 -80 -5 -32 -15 -104 -20 -154
-6 -48 -14 -113 -20 -146 -2 -14 -7 -50 -10 -80 -4 -30 -10 -82 -15 -115 -5
-33 -12 -85 -15 -115 -11 -96 -32 -154 -72 -195 -49 -50 -114 -78 -185 -79
-51 0 -58 -3 -58 -21 0 -21 52 -22 678 -16 39 1 52 5 52 16 0 11 -11 15 -43
15 -33 0 -54 8 -85 29 -47 35 -65 80 -57 145 3 25 7 65 10 89 15 145 26 247
31 277 2 20 6 60 9 90 2 30 7 78 10 105 4 28 8 66 10 85 6 50 16 139 20 180 2
19 9 82 15 140 12 119 18 168 26 223 6 37 6 36 116 -150 61 -104 122 -205 134
-225 13 -21 24 -40 24 -43 0 -3 9 -18 19 -33 20 -28 441 -735 481 -807 12 -22
28 -47 36 -56 8 -8 14 -18 14 -22 0 -3 16 -32 36 -65 32 -55 73 -87 75 -59 5
70 35 183 69 255 28 60 147 270 289 510 34 57 61 106 61 108 0 3 8 17 19 32
18 26 311 530 338 582 7 14 13 21 14 15 0 -5 2 -17 3 -25 3 -13 10 -71 21
-175 1 -16 6 -61 9 -100 4 -38 9 -86 11 -105 3 -19 7 -53 10 -75 2 -22 7 -65
9 -95 3 -30 7 -68 10 -85 2 -16 7 -61 11 -100 3 -38 8 -81 10 -95 2 -14 7 -56
11 -95 11 -123 17 -179 30 -287 11 -89 -45 -157 -137 -166 -54 -5 -71 -31 -21
-33 164 -3 1013 1 1021 5 24 15 -2 31 -54 33 -77 2 -121 19 -171 65 -48 44
-79 110 -89 188 -11 89 -14 109 -20 150 -3 22 -7 59 -10 83 -3 23 -8 53 -10
67 -2 14 -7 49 -10 79 -4 30 -8 62 -10 72 -2 10 -7 49 -10 86 -4 37 -9 71 -11
74 -2 3 -6 33 -9 66 -3 33 -8 71 -10 84 -3 13 -7 47 -10 74 -3 28 -7 61 -10
75 -2 14 -7 43 -9 65 -8 64 -36 277 -41 313 -3 18 -8 54 -11 80 -3 26 -7 58
-9 72 -4 31 -13 93 -19 140 -5 40 -34 255 -42 315 -3 22 -7 54 -10 70 -4 30
-7 57 -19 150 -10 84 -14 97 -32 93 -10 -2 -53 -65 -98 -143 -45 -77 -161
-275 -257 -440 -97 -165 -184 -315 -194 -332 -86 -150 -271 -465 -290 -495
-13 -21 -24 -42 -24 -48 0 -5 -4 -10 -10 -10 -5 0 -10 -4 -10 -9 0 -5 -19 -42
-43 -83 -24 -40 -63 -106 -86 -146 l-42 -73 -18 23 c-10 13 -20 28 -22 33 -2
6 -24 43 -49 83 -25 41 -52 86 -61 100 -59 98 -195 323 -214 352 -12 19 -120
197 -240 395 -120 198 -266 439 -325 535 -59 96 -113 186 -121 200 -23 40 -41
60 -56 60 -7 0 -13 -3 -14 -7z"/>
<path d="M19450 13862 c0 -13 9 -18 33 -20 111 -7 179 -50 218 -136 18 -39 19
-90 18 -1156 0 -1160 -1 -1176 -43 -1330 -52 -194 -160 -346 -300 -425 -63
-35 -81 -57 -53 -68 16 -6 192 0 232 8 237 48 392 138 526 307 76 97 135 228
155 350 4 24 8 545 9 1158 1 976 3 1119 17 1150 36 84 112 137 203 142 36 2
50 7 50 18 0 13 -67 15 -532 18 -507 2 -533 1 -533 -16z"/>
<path d="M5795 11026 c-3 -6 -3 -51 -2 -101 l2 -90 6492 0 c4357 0 6494 3
6496 10 3 9 1 170 -2 186 0 3 -2922 6 -6492 6 -4729 0 -6492 -3 -6494 -11z"/>
<path d="M20489 11026 c-1 -18 -1 -107 0 -151 l1 -40 2588 0 2587 0 5 85 c3
47 4 92 2 101 -3 15 -224 16 -2593 16 -1883 0 -2589 -3 -2590 -11z"/>
<path d="M5405 9739 c-152 -21 -252 -51 -355 -107 -286 -157 -440 -422 -441
-758 -1 -259 80 -463 251 -634 42 -43 149 -119 207 -149 51 -26 179 -69 224
-76 213 -32 345 -27 519 22 52 15 160 61 188 80 11 9 -10 81 -63 215 -6 16 -9
16 -45 -2 -253 -129 -540 -126 -734 8 -111 76 -204 228 -232 382 -27 142 -9
321 44 437 20 45 61 113 79 131 7 7 18 21 25 31 22 30 118 101 172 126 194 92
456 74 632 -44 l31 -21 61 119 62 118 -58 31 c-65 34 -160 65 -254 82 -75 14
-243 19 -313 9z"/>
<path d="M10357 9744 c-1 -2 -27 -6 -57 -9 -278 -30 -549 -216 -673 -462 -27
-53 -65 -169 -73 -223 -3 -19 -7 -46 -10 -60 -5 -34 -7 -228 -1 -237 3 -5 7
-32 11 -61 17 -146 111 -326 233 -445 142 -139 306 -217 528 -252 46 -7 220
-8 250 -2 11 3 41 8 68 11 26 4 60 11 75 17 15 6 27 9 27 8 0 -7 90 29 158 62
198 98 348 268 418 472 37 110 40 131 44 282 4 150 -5 218 -44 332 -76 220
-266 415 -486 499 -79 29 -77 29 -165 49 -55 13 -294 28 -303 19z m226 -249
c173 -30 333 -150 415 -310 82 -163 88 -426 12 -605 -123 -288 -455 -426 -772
-319 -306 102 -457 412 -385 789 7 35 41 126 60 159 98 169 235 258 452 294
30 5 175 0 218 -8z"/>
<path d="M13408 9734 c-439 -65 -739 -394 -752 -825 -14 -468 259 -811 719
-903 39 -7 77 -14 85 -14 255 -8 368 12 545 98 201 97 353 268 427 480 44 126
56 338 28 490 -36 201 -175 412 -345 525 -198 131 -458 186 -707 149z m331
-249 c60 -15 165 -62 199 -88 65 -51 137 -139 172 -211 123 -253 83 -584 -92
-772 -204 -218 -553 -252 -814 -79 -113 75 -207 224 -238 375 -14 72 -16 229
-2 309 19 114 84 239 168 322 86 85 191 134 353 162 46 8 194 -2 254 -18z"/>
<path d="M15535 9739 c-110 -11 -151 -18 -231 -45 -310 -101 -528 -335 -589
-631 -15 -74 -23 -272 -12 -310 3 -10 8 -35 12 -57 7 -49 49 -175 77 -229 120
-238 355 -408 635 -461 102 -19 325 -19 428 0 172 33 324 102 424 192 l33 31
0 328 c0 180 -1 333 -1 338 -1 7 -111 10 -323 10 l-323 0 -2 -121 -1 -121 161
-1 c89 0 173 -1 187 -1 l25 -1 0 -159 c0 -111 -4 -163 -13 -173 -20 -24 -125
-68 -204 -84 -75 -16 -236 -22 -298 -11 -234 41 -411 195 -491 424 -26 75 -34
136 -33 253 2 201 92 377 246 482 65 44 158 85 210 93 111 18 140 21 203 19
169 -3 345 -47 408 -102 9 -8 19 -13 21 -11 8 9 106 209 106 217 0 13 -115 66
-182 86 -149 43 -320 59 -473 45z"/>
<path d="M21037 9744 c-1 -1 -33 -4 -71 -8 -425 -40 -752 -338 -803 -731 -58
-442 181 -829 598 -968 42 -14 100 -29 130 -34 83 -13 376 -9 444 6 146 31
298 101 380 174 l55 49 0 336 0 337 -325 0 -325 1 0 -122 0 -121 180 0 c99 0
183 -2 186 -5 4 -4 7 -176 4 -305 0 -42 -144 -105 -273 -120 -94 -11 -220 -6
-290 12 -298 74 -482 332 -473 665 10 397 309 632 750 589 128 -13 190 -30
275 -75 36 -18 66 -33 67 -31 13 16 102 213 98 219 -9 15 -103 58 -167 78
-115 34 -227 51 -355 54 -46 1 -84 1 -85 0z"/>
<path d="M25648 9734 c-116 -19 -183 -40 -293 -94 -206 -102 -358 -280 -424
-495 -31 -100 -36 -143 -35 -295 1 -146 19 -235 72 -355 104 -237 326 -417
587 -475 106 -24 250 -30 378 -16 122 13 341 87 353 120 4 10 -56 192 -72 217
-2 4 -30 -5 -62 -21 -214 -105 -474 -112 -657 -16 -144 75 -262 249 -291 431
-20 125 -1 311 43 410 109 251 352 387 633 354 119 -14 172 -32 259 -86 29
-19 54 -33 55 -31 24 53 94 188 105 200 7 10 11 23 8 30 -11 31 -205 104 -327
123 -75 12 -251 12 -332 -1z"/>
<path d="M28856 9738 c-208 -21 -395 -147 -432 -293 -2 -5 -7 -24 -12 -42 -27
-86 -5 -255 45 -348 59 -110 132 -165 383 -289 234 -115 293 -164 318 -266 25
-106 -13 -183 -118 -236 -126 -64 -337 -31 -496 75 l-44 30 -23 -37 c-65 -104
-107 -183 -102 -192 10 -15 86 -58 156 -86 132 -54 330 -79 469 -58 240 34
406 175 444 373 45 234 -57 406 -324 548 -41 22 -115 62 -165 88 -202 107
-274 181 -280 284 -5 89 33 152 112 188 67 31 166 37 255 17 65 -15 188 -71
188 -86 0 -4 6 -8 13 -8 8 0 42 46 76 102 l62 103 -23 19 c-28 23 -154 84
-189 92 -139 29 -203 34 -313 22z"/>
<path d="M2070 9604 l0 -114 33 -1 c17 0 121 -1 230 0 l197 0 1 -57 c0 -31 0
-364 -1 -739 l-1 -683 141 0 140 0 2 738 3 737 155 2 c85 1 190 2 232 2 l77 1
-2 113 -2 112 -602 1 -603 1 0 -113z"/>
<path d="M3539 9716 c0 0 -1 -385 -2 -854 l-2 -852 441 0 442 0 0 108 c0 59
-4 112 -8 117 -5 6 -116 10 -298 9 -260 -1 -291 0 -294 15 -2 9 -4 131 -3 271
l0 255 205 1 c113 1 207 2 210 3 3 0 6 52 5 114 l0 112 -210 5 -210 5 0 230 0
230 235 2 c129 1 246 2 260 3 l26 0 -1 113 0 112 -398 1 c-218 1 -397 1 -398
0z"/>
<path d="M6290 8864 l0 -854 140 0 140 0 0 395 c0 309 3 395 13 396 60 4 607
0 613 -4 5 -3 9 -181 9 -396 l0 -391 140 0 140 0 0 853 0 854 -140 -1 -140 -1
0 -346 0 -347 -315 2 -315 1 -3 346 -2 346 -140 0 -140 1 0 -854z"/>
<path d="M7865 8865 l0 -856 139 3 139 3 -1 520 c-1 286 -3 530 -6 543 -3 12
-1 22 3 22 6 0 129 -125 425 -434 32 -33 104 -109 160 -167 55 -58 184 -192
285 -297 108 -113 192 -192 203 -192 14 0 18 8 19 43 0 23 1 407 2 853 l2 811
-142 0 -142 0 2 -553 2 -552 -27 30 c-15 17 -64 69 -110 117 -90 94 -394 412
-478 501 -29 30 -121 127 -205 215 -84 88 -170 179 -192 203 -21 23 -47 42
-58 42 -20 0 -20 -10 -20 -855z"/>
<path d="M11669 9716 c-1 0 -2 -385 -3 -853 l-1 -853 403 0 402 0 -2 118 -3
117 -252 0 c-138 0 -254 3 -258 7 -4 4 -7 335 -6 736 l1 729 -140 1 c-77 0
-141 -1 -141 -2z"/>
<path d="M16340 9714 c0 -3 189 -277 422 -613 51 -74 118 -171 148 -216 l55
-81 0 -397 0 -397 140 0 140 0 0 398 0 397 90 130 c50 72 121 175 158 230 38
55 124 181 192 280 69 99 138 201 154 226 l30 47 -166 -1 -165 0 -78 -121
c-43 -67 -127 -197 -187 -289 -59 -93 -122 -188 -139 -213 l-31 -44 -59 92
c-32 50 -99 154 -149 230 -49 76 -120 185 -158 242 l-67 105 -165 -1 c-91 -1
-165 -3 -165 -4z"/>
<path d="M19234 9668 c-15 -29 -90 -177 -167 -328 -76 -151 -211 -417 -300
-590 -88 -173 -209 -411 -268 -527 l-109 -213 159 0 158 0 16 38 c8 20 42 95
76 167 l60 130 403 1 c222 0 409 -2 417 -4 7 -3 31 -44 53 -91 21 -47 56 -121
75 -163 l37 -78 158 0 c87 0 158 3 158 6 0 5 -191 382 -360 709 -43 83 -153
299 -245 480 -246 483 -261 510 -278 513 -11 2 -25 -14 -43 -50z m126 -623
c40 -88 104 -225 142 -304 37 -79 68 -147 68 -151 0 -4 -133 -7 -295 -7 -162
0 -295 3 -295 8 0 4 33 77 73 161 40 84 107 224 147 310 41 87 77 155 81 150
3 -4 39 -79 79 -167z"/>
<path d="M22072 8864 l0 -854 439 0 439 0 0 115 c0 85 -3 115 -12 116 -7 0
-142 1 -300 1 l-288 1 0 88 c-1 49 -1 145 -1 214 0 69 0 151 1 183 l0 57 208
0 207 0 2 118 2 117 -210 0 -209 0 0 63 c-2 227 0 389 5 397 3 5 108 9 233 9
125 -1 239 0 255 0 l27 1 0 113 0 113 -399 1 -399 1 0 -854z"/>
<path d="M23229 9683 c0 -49 0 -1610 0 -1645 l1 -28 138 0 138 0 -1 548 -1
547 91 -95 c51 -52 114 -118 141 -146 71 -74 408 -425 555 -578 70 -72 157
-164 195 -203 42 -45 76 -73 88 -73 l21 0 -1 848 c-1 466 -2 850 -3 854 0 3
-63 5 -138 5 l-138 -2 1 -480 c0 -264 2 -509 3 -545 2 -36 3 -68 2 -72 -1 -3
-29 23 -63 59 -35 37 -81 85 -103 108 -22 23 -83 87 -135 142 -52 54 -169 177
-260 272 -91 96 -185 195 -210 221 -25 26 -99 104 -165 173 -66 70 -127 127
-137 127 -14 0 -18 -8 -19 -37z"/>
<path d="M26610 8864 l0 -854 139 0 138 0 1 853 0 854 -139 0 -139 1 0 -854z"/>
<path d="M27300 8864 l0 -854 439 0 438 0 1 115 c1 112 0 115 -21 116 -12 0
-147 1 -299 1 -196 1 -278 4 -279 12 -7 64 -2 526 6 529 5 2 99 3 207 2 169
-1 197 2 200 15 2 8 4 60 3 115 l0 100 -210 5 -210 5 0 215 c-1 118 1 222 3
231 3 15 31 16 245 17 133 1 249 1 259 1 14 1 16 16 17 114 l0 113 -400 1
-399 1 0 -854z"/>
<path d="M5889 7158 c-1 -18 -1 -1035 0 -1079 l1 -36 260 0 260 0 0 61 0 62
-192 -1 -193 0 0 200 0 200 134 5 135 5 1 58 c1 35 -3 57 -9 58 -6 0 -67 1
-136 2 l-124 2 -1 165 c-1 91 1 171 3 178 3 9 46 12 168 12 l164 0 0 60 0 60
-235 0 c-181 0 -235 -3 -236 -12z"/>
<path d="M8984 6608 l1 -563 63 -2 c34 -2 63 0 63 5 1 4 2 258 3 565 l1 557
-66 0 -66 0 1 -562z"/>
<path d="M12004 7113 l1 -58 149 -5 149 -5 1 -500 1 -500 68 -1 67 -2 0 504 0
504 153 0 152 0 -2 50 c0 28 -2 55 -2 60 -1 6 -131 10 -369 10 l-368 0 0 -57z"/>
<path d="M14395 6610 c0 -494 1 -561 15 -564 26 -6 82 -7 100 -1 16 5 18 24
19 196 1 212 7 249 54 311 87 113 248 120 302 13 18 -36 20 -64 23 -281 l4
-242 66 2 67 1 -1 205 c-1 253 -8 321 -40 387 -37 77 -103 115 -199 115 -98 0
-152 -24 -216 -94 -26 -28 -51 -48 -56 -45 -6 4 -9 114 -8 282 l1 275 -65 0
-66 0 0 -560z"/>
<path d="M17120 6606 l0 -564 65 -1 65 -1 1 38 c1 62 1 1045 0 1070 -1 20 -6
22 -66 22 l-65 0 0 -564z"/>
<path d="M20570 6606 l0 -564 70 0 c46 0 70 4 71 12 0 6 1 102 1 214 l1 202
36 1 c198 4 303 38 377 122 96 108 110 317 30 436 -72 106 -169 139 -421 141
l-165 1 0 -565z m353 427 c89 -28 140 -105 140 -210 -1 -107 -53 -183 -146
-213 -21 -7 -76 -14 -121 -16 l-83 -4 -1 230 0 231 81 -1 c45 -1 103 -8 130
-17z"/>
<path d="M11260 7046 l-55 -11 -2 -135 c-1 -74 -2 -143 -2 -152 -1 -15 -11
-18 -64 -18 l-63 0 0 -50 0 -50 63 0 c58 0 63 -2 64 -22 0 -13 1 -144 2 -293
l2 -270 68 -2 67 -2 0 295 0 294 84 0 83 0 2 50 1 50 -85 0 -85 0 0 165 c0
126 -3 165 -12 164 -7 -1 -38 -6 -68 -13z"/>
<path d="M23058 7046 c-26 -7 -50 -11 -53 -8 -3 3 -5 -66 -5 -152 l0 -158 -37
2 c-92 4 -90 5 -92 -50 l-1 -50 65 0 65 0 2 -292 3 -293 65 0 65 0 0 290 0
290 83 3 c69 2 82 5 83 20 0 9 2 27 3 39 5 41 -8 48 -91 45 l-78 -3 0 163 c0
183 4 176 -77 154z"/>
<path d="M13915 6748 c-180 -21 -293 -139 -303 -319 -14 -240 128 -398 359
-400 77 0 103 5 164 31 41 17 45 23 39 42 -14 47 -35 69 -58 62 -77 -25 -107
-31 -153 -28 -101 6 -171 66 -196 167 -37 145 8 274 110 318 78 33 150 25 244
-28 5 -3 59 88 59 100 0 9 -96 46 -145 54 -27 5 -81 5 -120 1z"/>
<path d="M24652 6748 c-213 -24 -341 -213 -300 -442 35 -193 185 -293 411
-275 81 6 181 32 192 48 2 5 -3 26 -12 48 l-17 39 -66 -18 c-92 -26 -200 -23
-262 8 -54 27 -97 89 -105 153 l-5 39 256 -1 c141 0 259 2 262 5 7 8 7 135 0
163 -23 91 -51 141 -99 177 -65 49 -152 68 -255 56z m154 -131 c39 -20 59 -50
71 -107 17 -84 27 -80 -197 -80 l-198 0 10 42 c13 59 43 109 82 136 60 41 163
45 232 9z"/>
<path d="M7597 6739 c-91 -22 -169 -84 -210 -166 -32 -65 -39 -96 -38 -178 3
-220 146 -366 359 -366 71 0 194 30 207 51 3 5 -4 28 -15 50 -16 32 -25 40
-38 35 -132 -55 -262 -31 -323 60 -65 96 -59 275 13 353 60 65 173 82 260 39
29 -14 53 -25 53 -24 1 1 14 23 28 49 l27 47 -22 15 c-62 41 -209 58 -301 35z"/>
<path d="M8325 6737 c-63 -21 -98 -42 -142 -86 -71 -72 -104 -171 -97 -295 9
-171 110 -288 275 -321 33 -7 168 -7 204 0 44 8 124 35 129 44 4 6 -29 91 -36
91 -2 0 -26 -9 -55 -20 -40 -15 -72 -19 -145 -17 -87 2 -96 4 -139 34 -52 36
-96 118 -90 169 1 8 75 12 257 12 140 0 258 2 260 5 14 13 3 148 -16 209 -23
75 -63 124 -132 159 -53 28 -209 37 -273 16z m191 -108 c71 -22 110 -87 105
-176 l-1 -23 -194 0 c-213 0 -213 0 -190 58 7 17 11 32 8 32 -10 0 45 73 67
88 52 36 131 44 205 21z"/>
<path d="M9599 6741 c-119 -38 -200 -118 -237 -236 -5 -16 -10 -64 -11 -106
-9 -306 236 -444 592 -332 21 7 21 12 1 63 -13 31 -21 39 -33 34 -78 -32 -199
-44 -270 -24 -22 6 -54 23 -72 37 -34 29 -79 114 -79 150 0 21 1 21 233 22
127 0 247 0 264 1 l33 0 -5 87 c-3 48 -13 110 -22 138 -23 64 -93 136 -153
157 -49 16 -199 22 -241 9z m162 -105 c72 -13 114 -65 124 -155 l6 -51 -202 0
-201 0 6 35 c18 94 69 152 153 171 49 11 52 11 114 0z"/>
<path d="M10521 6730 c-40 -19 -121 -92 -121 -110 0 -5 -8 -6 -18 -3 -14 3
-18 14 -17 49 0 70 2 69 -110 65 l-25 -1 0 -340 0 -340 23 -5 c12 -2 42 -4 67
-2 l44 2 2 200 c2 215 7 243 60 312 51 68 156 105 226 81 79 -28 98 -104 98
-395 l0 -201 68 1 67 2 0 200 c1 295 -14 380 -74 443 -20 21 -55 43 -77 50
-63 19 -162 15 -213 -8z"/>
<path d="M13023 6740 c-76 -18 -155 -74 -198 -140 -70 -111 -75 -284 -12 -406
22 -43 83 -101 130 -125 59 -31 164 -46 253 -38 80 8 184 36 184 50 0 5 -7 26
-16 48 l-16 40 -41 -16 c-60 -23 -216 -27 -264 -7 -68 28 -113 87 -128 166
l-7 36 229 0 c125 0 245 1 265 1 l36 1 -3 78 c-5 97 -11 126 -38 180 -30 60
-86 108 -148 126 -54 17 -170 20 -226 6z m182 -112 c63 -24 89 -63 100 -146
l6 -52 -201 0 -202 0 7 37 c8 45 36 102 62 125 54 49 154 65 228 36z"/>
<path d="M15592 6733 c-28 -10 -58 -33 -89 -68 -26 -29 -53 -51 -60 -48 -8 3
-13 24 -13 59 0 49 -2 54 -22 55 -37 2 -103 -2 -107 -7 -3 -3 -5 -604 -2 -666
1 -24 131 -24 132 1 0 9 1 97 1 196 0 153 3 188 20 232 36 96 125 161 219 158
121 -5 145 -73 144 -417 l-1 -187 69 0 68 0 -2 222 c0 122 -5 248 -10 280 -17
106 -69 175 -147 197 -52 14 -149 11 -200 -7z"/>
<path d="M16401 6733 c-97 -33 -166 -97 -209 -192 -34 -77 -36 -210 -3 -293
28 -71 94 -146 157 -178 67 -33 76 -35 189 -35 89 1 106 4 158 29 121 60 190
178 190 326 0 149 -66 263 -190 325 -50 26 -70 30 -153 32 -64 1 -109 -3 -139
-14z m220 -110 c82 -51 123 -131 122 -240 0 -59 -5 -82 -29 -130 -107 -214
-406 -125 -407 122 0 99 16 150 65 207 56 66 176 85 249 41z"/>
<path d="M17723 6731 c-175 -60 -264 -225 -229 -425 11 -68 66 -155 125 -202
153 -120 404 -92 517 59 70 94 91 227 54 347 -33 109 -126 200 -235 229 -61
16 -173 13 -232 -8z m200 -99 c80 -36 129 -107 142 -208 31 -228 -186 -377
-351 -241 -98 81 -114 262 -33 382 49 72 161 103 242 67z"/>
<path d="M18620 6741 c-80 -25 -158 -89 -195 -161 -61 -118 -47 -323 30 -424
36 -48 111 -101 163 -116 48 -13 137 -13 185 1 54 15 120 57 142 90 11 15 27
27 38 26 16 -1 18 -11 16 -102 -2 -114 -15 -164 -55 -206 -66 -69 -221 -85
-343 -36 l-61 25 -6 -27 c-3 -14 -10 -41 -14 -59 -8 -31 -7 -33 27 -47 138
-58 354 -49 453 18 51 33 104 116 119 183 11 49 17 454 12 784 l-1 46 -57 -4
c-32 -2 -59 -5 -61 -7 -2 -1 -4 -22 -6 -45 -3 -54 -27 -70 -50 -35 -21 32 -92
79 -142 93 -45 13 -155 15 -194 3z m225 -116 c50 -20 94 -64 119 -119 30 -63
31 -179 2 -237 -58 -121 -204 -167 -326 -104 -99 51 -141 235 -81 358 50 103
176 148 286 102z"/>
<path d="M21569 6732 c-100 -41 -147 -86 -185 -182 -29 -70 -36 -179 -18 -257
35 -151 157 -254 311 -261 100 -6 163 17 226 80 50 50 72 53 74 11 0 -13 1
-36 2 -53 l1 -30 63 3 62 2 0 342 0 341 -41 4 c-22 2 -52 1 -66 -2 -22 -4 -24
-10 -23 -43 2 -23 -3 -44 -13 -53 -13 -14 -18 -12 -42 18 -15 19 -52 47 -81
63 -70 38 -197 46 -270 17z m277 -127 c67 -39 102 -101 111 -197 15 -161 -97
-283 -249 -271 -61 5 -86 14 -127 48 -46 39 -71 96 -78 174 -19 222 162 352
343 246z"/>
<path d="M22639 6730 c-36 -19 -90 -78 -102 -112 -4 -11 -12 -15 -22 -12 -11
5 -15 21 -15 64 0 57 -1 59 -27 62 -16 2 -46 2 -68 0 l-40 -4 1 -336 c1 -185
2 -340 3 -344 0 -4 30 -7 66 -7 l65 1 1 196 c1 217 2 229 26 275 29 58 102 98
179 100 l53 2 7 40 c17 97 17 95 -40 95 -30 -1 -66 -9 -87 -20z"/>
<path d="M23782 6737 c-38 -12 -118 -79 -127 -106 -4 -13 -12 -17 -25 -14 -17
4 -20 14 -20 59 0 52 -1 54 -27 55 -16 0 -45 1 -66 2 -27 2 -37 -2 -38 -13 -7
-120 -2 -664 6 -670 6 -5 36 -9 68 -9 l57 0 0 37 c5 372 5 376 28 424 44 90
120 142 209 142 67 1 101 -24 127 -90 16 -42 19 -82 22 -269 1 -121 3 -225 3
-231 1 -8 25 -12 66 -13 l65 -1 1 43 c3 127 -1 397 -5 425 -4 18 -8 47 -11 65
-14 83 -68 145 -146 167 -43 13 -144 11 -187 -3z"/>
<path d="M25505 6733 c-44 -23 -74 -53 -96 -95 -13 -25 -24 -35 -34 -32 -16 6
-17 12 -17 82 0 46 4 44 -83 44 -19 0 -39 -1 -43 -1 -5 -1 -9 -156 -9 -345
l-1 -344 67 0 68 0 1 191 c0 106 3 207 6 225 16 85 104 154 201 155 l54 1 7
50 c3 28 8 59 10 69 2 14 -5 17 -49 17 -29 -1 -65 -8 -82 -17z"/>
<path d="M6560 6729 c0 -6 69 -102 158 -219 61 -81 75 -107 66 -123 -11 -17
-128 -181 -174 -242 -21 -27 -45 -62 -54 -76 l-17 -26 79 -1 78 0 41 62 c22
33 61 94 87 134 l47 74 57 -84 c32 -45 73 -106 92 -134 l35 -52 67 0 c37 0 70
3 72 6 3 6 -70 112 -218 316 l-36 48 93 122 c51 66 105 138 120 159 l28 37
-84 0 -83 0 -17 -32 c-19 -37 -39 -70 -47 -78 -3 -3 -21 -31 -40 -62 -19 -32
-37 -58 -40 -58 -3 0 -38 52 -79 115 -40 63 -76 115 -80 116 -42 4 -151 3
-151 -2z"/>
<path d="M19310 6724 c0 -6 63 -167 140 -358 77 -191 140 -355 140 -365 0 -14
-36 -108 -80 -206 -15 -34 -60 -144 -60 -148 0 -8 131 0 138 8 4 6 30 66 56
135 26 69 54 139 61 155 7 17 59 147 115 290 57 143 124 313 150 378 l47 117
-31 1 c-17 0 -48 1 -69 2 -45 2 -52 -4 -71 -64 -8 -24 -42 -123 -76 -219 -34
-96 -73 -211 -87 -255 -14 -44 -27 -75 -28 -70 -16 62 -166 521 -177 541 -3 5
-8 21 -12 37 -4 19 -13 27 -29 28 -12 0 -46 1 -75 2 -31 1 -52 -2 -52 -9z"/>
</g>
</svg>
